%TF.GenerationSoftware,KiCad,Pcbnew,(6.0.11)*%
%TF.CreationDate,2023-04-20T22:04:15+02:00*%
%TF.ProjectId,NixieTubeSchematic,4e697869-6554-4756-9265-536368656d61,0.1*%
%TF.SameCoordinates,Original*%
%TF.FileFunction,AssemblyDrawing,Bot*%
%FSLAX46Y46*%
G04 Gerber Fmt 4.6, Leading zero omitted, Abs format (unit mm)*
G04 Created by KiCad (PCBNEW (6.0.11)) date 2023-04-20 22:04:15*
%MOMM*%
%LPD*%
G01*
G04 APERTURE LIST*
%ADD10C,0.150000*%
%ADD11C,0.100000*%
G04 APERTURE END LIST*
D10*
%TO.C,BT1*%
X143761904Y-92054380D02*
X143142857Y-92054380D01*
X143476190Y-92435333D01*
X143333333Y-92435333D01*
X143238095Y-92482952D01*
X143190476Y-92530571D01*
X143142857Y-92625809D01*
X143142857Y-92863904D01*
X143190476Y-92959142D01*
X143238095Y-93006761D01*
X143333333Y-93054380D01*
X143619047Y-93054380D01*
X143714285Y-93006761D01*
X143761904Y-92959142D01*
X142857142Y-92054380D02*
X142523809Y-93054380D01*
X142190476Y-92054380D01*
X143785714Y-101928571D02*
X143642857Y-101976190D01*
X143595238Y-102023809D01*
X143547619Y-102119047D01*
X143547619Y-102261904D01*
X143595238Y-102357142D01*
X143642857Y-102404761D01*
X143738095Y-102452380D01*
X144119047Y-102452380D01*
X144119047Y-101452380D01*
X143785714Y-101452380D01*
X143690476Y-101500000D01*
X143642857Y-101547619D01*
X143595238Y-101642857D01*
X143595238Y-101738095D01*
X143642857Y-101833333D01*
X143690476Y-101880952D01*
X143785714Y-101928571D01*
X144119047Y-101928571D01*
X143261904Y-101452380D02*
X142690476Y-101452380D01*
X142976190Y-102452380D02*
X142976190Y-101452380D01*
X141833333Y-102452380D02*
X142404761Y-102452380D01*
X142119047Y-102452380D02*
X142119047Y-101452380D01*
X142214285Y-101595238D01*
X142309523Y-101690476D01*
X142404761Y-101738095D01*
D11*
X141300000Y-107800000D02*
X139100000Y-110000000D01*
X132387250Y-98500000D02*
X128800000Y-98500000D01*
X139100000Y-110000000D02*
X135197400Y-110000000D01*
X128800000Y-98500000D02*
X128800000Y-100100000D01*
X157200000Y-105500000D02*
X153612750Y-105500000D01*
X150802600Y-94000000D02*
X135197400Y-94000000D01*
X128800000Y-103900000D02*
X128800000Y-105500000D01*
X157200000Y-103900000D02*
X157200000Y-105500000D01*
X128800000Y-105500000D02*
X132387250Y-105500000D01*
X146900000Y-110000000D02*
X150802600Y-110000000D01*
X157200000Y-98500000D02*
X157200000Y-100100000D01*
X144700000Y-107800000D02*
X146900000Y-110000000D01*
X157200000Y-98500000D02*
X153612750Y-98500000D01*
X144700000Y-107800000D02*
X141300000Y-107800000D01*
X135197398Y-94000008D02*
G75*
G03*
X132387250Y-98500000I7802602J-7999992D01*
G01*
X150802602Y-109999992D02*
G75*
G03*
X153612750Y-105500000I-7802592J7999985D01*
G01*
X132387250Y-105500000D02*
G75*
G03*
X135197398Y-109999992I10612756J3500003D01*
G01*
X153612750Y-98500000D02*
G75*
G03*
X150802602Y-94000008I-10612750J-3500000D01*
G01*
%TD*%
M02*
