%TF.GenerationSoftware,KiCad,Pcbnew,(6.0.11)*%
%TF.CreationDate,2023-04-20T22:04:15+02:00*%
%TF.ProjectId,NixieTubeSchematic,4e697869-6554-4756-9265-536368656d61,0.1*%
%TF.SameCoordinates,Original*%
%TF.FileFunction,AssemblyDrawing,Top*%
%FSLAX46Y46*%
G04 Gerber Fmt 4.6, Leading zero omitted, Abs format (unit mm)*
G04 Created by KiCad (PCBNEW (6.0.11)) date 2023-04-20 22:04:15*
%MOMM*%
%LPD*%
G01*
G04 APERTURE LIST*
%ADD10C,0.150000*%
%ADD11C,0.200000*%
%ADD12C,0.100000*%
G04 APERTURE END LIST*
D10*
%TO.C,R1*%
X155847380Y-113484285D02*
X155847380Y-114055714D01*
X155847380Y-113770000D02*
X154847380Y-113770000D01*
X154990238Y-113865238D01*
X155085476Y-113960476D01*
X155133095Y-114055714D01*
X155847380Y-113055714D02*
X154847380Y-113055714D01*
X155847380Y-112484285D02*
X155275952Y-112912857D01*
X154847380Y-112484285D02*
X155418809Y-113055714D01*
X161287380Y-113436666D02*
X160811190Y-113770000D01*
X161287380Y-114008095D02*
X160287380Y-114008095D01*
X160287380Y-113627142D01*
X160335000Y-113531904D01*
X160382619Y-113484285D01*
X160477857Y-113436666D01*
X160620714Y-113436666D01*
X160715952Y-113484285D01*
X160763571Y-113531904D01*
X160811190Y-113627142D01*
X160811190Y-114008095D01*
X161287380Y-112484285D02*
X161287380Y-113055714D01*
X161287380Y-112770000D02*
X160287380Y-112770000D01*
X160430238Y-112865238D01*
X160525476Y-112960476D01*
X160573095Y-113055714D01*
%TO.C,D1*%
X124492380Y-114222380D02*
X123825714Y-114222380D01*
X124016190Y-114222380D02*
X123920952Y-114174761D01*
X123873333Y-114127142D01*
X123825714Y-114031904D01*
X123825714Y-113936666D01*
X124444761Y-113222380D02*
X124492380Y-113317619D01*
X124492380Y-113508095D01*
X124444761Y-113603333D01*
X124349523Y-113650952D01*
X123968571Y-113650952D01*
X123873333Y-113603333D01*
X123825714Y-113508095D01*
X123825714Y-113317619D01*
X123873333Y-113222380D01*
X123968571Y-113174761D01*
X124063809Y-113174761D01*
X124159047Y-113650952D01*
X124492380Y-112317619D02*
X123492380Y-112317619D01*
X124444761Y-112317619D02*
X124492380Y-112412857D01*
X124492380Y-112603333D01*
X124444761Y-112698571D01*
X124397142Y-112746190D01*
X124301904Y-112793809D01*
X124016190Y-112793809D01*
X123920952Y-112746190D01*
X123873333Y-112698571D01*
X123825714Y-112603333D01*
X123825714Y-112412857D01*
X123873333Y-112317619D01*
D11*
X128361904Y-113840476D02*
X127561904Y-113840476D01*
X127561904Y-113650000D01*
X127600000Y-113535714D01*
X127676190Y-113459523D01*
X127752380Y-113421428D01*
X127904761Y-113383333D01*
X128019047Y-113383333D01*
X128171428Y-113421428D01*
X128247619Y-113459523D01*
X128323809Y-113535714D01*
X128361904Y-113650000D01*
X128361904Y-113840476D01*
X128361904Y-112621428D02*
X128361904Y-113078571D01*
X128361904Y-112850000D02*
X127561904Y-112850000D01*
X127676190Y-112926190D01*
X127752380Y-113002380D01*
X127790476Y-113078571D01*
D12*
%TO.C,R1*%
X159715000Y-112000000D02*
G75*
G03*
X159715000Y-112000000I-1600000J0D01*
G01*
X158115000Y-112000000D02*
X158115000Y-114540000D01*
%TO.C,D1*%
X130500000Y-113270000D02*
G75*
G03*
X130500000Y-113270000I-2500000J0D01*
G01*
X126530334Y-110769984D02*
G75*
G03*
X129469694Y-110770000I1469666J-2500016D01*
G01*
X129469694Y-110770000D02*
X126530306Y-110770000D01*
%TD*%
M02*
